<?xml version="1.0" encoding="utf-8"?>
<!-- Generator: Adobe Illustrator 14.0.0, SVG Export Plug-In . SVG Version: 6.00 Build 43363)  -->
<!DOCTYPE svg PUBLIC "-//W3C//DTD SVG 1.1//EN" "http://www.w3.org/Graphics/SVG/1.1/DTD/svg11.dtd">
<svg version="1.1" id="Layer_1" xmlns="http://www.w3.org/2000/svg" xmlns:xlink="http://www.w3.org/1999/xlink" x="0px" y="0px"
	 width="500px" height="500px" viewBox="0 0 500 500" enable-background="new 0 0 500 500" xml:space="preserve">
<g>
	<g>
		<path fill="#231F20" d="M385.97,440.024H114.89c-3.202,0-5.799-2.597-5.799-5.798c0-3.203,2.597-5.8,5.799-5.8h265.281v-75.274
			c-0.059-1.432-1.15-24.44-11.456-50.648c-13.994-35.592-37.508-60.014-69.889-72.584c-2.985-1.158-4.466-4.519-3.307-7.503
			c1.158-2.986,4.521-4.464,7.503-3.307c35.142,13.643,61.64,41.139,76.63,79.521c11.229,28.749,12.082,53.214,12.112,54.242
			c0.002,0.058,0.003,0.116,0.003,0.174v81.18C391.768,437.428,389.172,440.024,385.97,440.024L385.97,440.024z"/>
	</g>
	<g>
		<path fill="#231F20" d="M238.814,227.346c-46.358,0-84.074-37.715-84.074-84.074s37.715-84.074,84.074-84.074
			s84.074,37.715,84.074,84.074S285.173,227.346,238.814,227.346L238.814,227.346z M238.814,70.795
			c-39.964,0-72.477,32.514-72.477,72.477c0,39.964,32.513,72.477,72.477,72.477s72.477-32.513,72.477-72.477
			C311.291,103.309,278.778,70.795,238.814,70.795L238.814,70.795z"/>
	</g>
	<g>
		<path fill="#231F20" d="M360.577,415.622H117.053c-3.202,0-5.799-2.595-5.799-5.798v-49.119
			c0-70.338,57.224-127.561,127.56-127.561c70.336,0,127.56,57.223,127.56,127.561l0.002,49.119c0,1.537-0.61,3.013-1.699,4.1
			C363.589,415.012,362.114,415.622,360.577,415.622L360.577,415.622z M122.852,404.026h231.927l-0.001-43.321
			c0-63.942-52.021-115.964-115.963-115.964c-63.942,0-115.963,52.021-115.963,115.964V404.026L122.852,404.026z"/>
	</g>
</g>
</svg>
