<?xml version="1.0" encoding="utf-8"?>
<!-- Generator: Adobe Illustrator 14.0.0, SVG Export Plug-In . SVG Version: 6.00 Build 43363)  -->
<!DOCTYPE svg PUBLIC "-//W3C//DTD SVG 1.1//EN" "http://www.w3.org/Graphics/SVG/1.1/DTD/svg11.dtd">
<svg version="1.1" id="Layer_1" xmlns="http://www.w3.org/2000/svg" xmlns:xlink="http://www.w3.org/1999/xlink" x="0px" y="0px"
	 width="500px" height="500px" viewBox="0 0 500 500" enable-background="new 0 0 500 500" xml:space="preserve">
<g>
	<g>
		<path fill="#231F20" d="M307.491,413.633H176.243c-2.063,0-3.97-1.099-5.004-2.885l-0.103-0.178l-65.526-113.495
			c-1.036-1.795-1.033-4.006,0.008-5.796l65.265-112.349c0.079-0.809,0.329-1.605,0.748-2.333c0.425-0.735,1-1.355,1.67-1.83
			l65.012-111.911c1.041-1.791,2.975-2.868,5.027-2.879c2.071,0.01,3.979,1.125,5.001,2.925l129.803,228.422
			c1.014,1.784,1.007,3.972-0.02,5.749l-65.625,113.666C311.467,412.53,309.557,413.633,307.491,413.633L307.491,413.633z
			 M179.582,402.066h124.571l62.3-107.905L243.258,77.369l-61.012,105.026c-0.052,0.09-0.106,0.178-0.163,0.264
			c-0.045,0.087-0.093,0.175-0.143,0.26L117.3,294.192L179.582,402.066L179.582,402.066z"/>
	</g>
	<g>
		<path fill="#231F20" d="M160.779,288.146c-0.958,0-1.93-0.238-2.825-0.741c-2.784-1.563-3.775-5.088-2.212-7.874l83.852-149.391
			c1.561-2.784,5.088-3.776,7.874-2.212c2.784,1.563,3.775,5.088,2.212,7.874l-83.851,149.391
			C164.767,287.082,162.802,288.146,160.779,288.146L160.779,288.146z"/>
	</g>
	<g>
		<path fill="#231F20" d="M200.306,371.998c-2.046,0-4.028-1.087-5.078-3.009l-27.95-51.083c-1.533-2.801-0.505-6.314,2.297-7.848
			c2.806-1.536,6.317-0.506,7.849,2.297l27.95,51.082c1.533,2.802,0.505,6.315-2.297,7.849
			C202.195,371.77,201.243,371.998,200.306,371.998L200.306,371.998z"/>
	</g>
	<g>
		<path fill="#231F20" d="M320.776,439.462H177.168c-3.193,0-5.783-2.589-5.783-5.783c0-3.193,2.589-5.782,5.783-5.782h140.369
			l66.738-109.037c1.669-2.724,5.228-3.579,7.951-1.914c2.725,1.667,3.582,5.228,1.914,7.951L325.71,436.697
			C324.658,438.414,322.79,439.462,320.776,439.462L320.776,439.462z"/>
	</g>
</g>
</svg>
