<?xml version="1.0" encoding="utf-8"?>
<!-- Generator: Adobe Illustrator 14.0.0, SVG Export Plug-In . SVG Version: 6.00 Build 43363)  -->
<!DOCTYPE svg PUBLIC "-//W3C//DTD SVG 1.1//EN" "http://www.w3.org/Graphics/SVG/1.1/DTD/svg11.dtd">
<svg version="1.1" id="Layer_1" xmlns="http://www.w3.org/2000/svg" xmlns:xlink="http://www.w3.org/1999/xlink" x="0px" y="0px"
	 width="500px" height="500px" viewBox="0 0 500 500" enable-background="new 0 0 500 500" xml:space="preserve">
<g>
	<g>
		<path fill="#231F20" d="M356.989,119.268h-213.75c-12.317,0-22.304,9.984-22.304,22.305v278.803
			c0,12.315,9.987,22.304,22.304,22.304h213.75c12.316,0,22.304-9.988,22.304-22.304V141.573
			C379.293,129.252,369.306,119.268,356.989,119.268z M198.071,378.737c0,9.652-9.987,17.474-22.304,17.474h-9.294
			c-12.319,0-22.304-7.821-22.304-17.474v-79.361c0-9.648,9.985-17.474,22.304-17.474h9.294c12.317,0,22.304,7.825,22.304,17.474
			V378.737z M198.071,244.912c0,9.652-9.987,17.474-22.304,17.474h-9.294c-12.319,0-22.304-7.821-22.304-17.474v-79.361
			c0-9.649,9.985-17.474,22.304-17.474h9.294c12.317,0,22.304,7.825,22.304,17.474V244.912z M276.136,378.737
			c0,9.652-9.987,17.474-22.304,17.474h-9.295c-12.318,0-22.305-7.821-22.305-17.474v-79.361c0-9.648,9.986-17.474,22.305-17.474
			h9.295c12.316,0,22.304,7.825,22.304,17.474V378.737z M276.136,244.912c0,9.652-9.987,17.474-22.304,17.474h-9.295
			c-12.318,0-22.305-7.821-22.305-17.474v-79.361c0-9.649,9.986-17.474,22.305-17.474h9.295c12.316,0,22.304,7.825,22.304,17.474
			V244.912z M355.129,378.737c0,9.652-9.985,17.474-22.304,17.474h-9.293c-12.321,0-22.304-7.821-22.304-17.474v-79.361
			c0-9.648,9.982-17.474,22.304-17.474h9.293c12.318,0,22.304,7.825,22.304,17.474V378.737z M355.129,244.912
			c0,9.652-9.985,17.474-22.304,17.474h-9.293c-12.321,0-22.304-7.821-22.304-17.474v-79.361c0-9.649,9.982-17.474,22.304-17.474
			h9.293c12.318,0,22.304,7.825,22.304,17.474V244.912z"/>
	</g>
	<g>
		<path fill="#231F20" d="M369.533,57.003h-238.84c-9.751,0-17.656,7.907-17.656,17.659c0,9.75,7.905,17.654,17.656,17.654h238.84
			c9.754,0,17.657-7.904,17.657-17.654C387.19,64.911,379.287,57.003,369.533,57.003z"/>
	</g>
</g>
</svg>
