<?xml version="1.0" encoding="utf-8"?>
<!-- Generator: Adobe Illustrator 14.0.0, SVG Export Plug-In . SVG Version: 6.00 Build 43363)  -->
<!DOCTYPE svg PUBLIC "-//W3C//DTD SVG 1.1//EN" "http://www.w3.org/Graphics/SVG/1.1/DTD/svg11.dtd">
<svg version="1.1" id="Layer_1" xmlns="http://www.w3.org/2000/svg" xmlns:xlink="http://www.w3.org/1999/xlink" x="0px" y="0px"
	 width="500px" height="500px" viewBox="0 0 500 500" enable-background="new 0 0 500 500" xml:space="preserve">
<g>
	<g>
		<path fill="#231F20" d="M182.797,408.24c-0.004,0-0.005,0-0.009,0c-26.406-0.002-51.126-9.112-57.144-12.43
			c-10.958-6.043-9.998-17.303-7.959-22.413c0.08-0.199,0.172-0.394,0.275-0.582l37.989-68.898c0.104-0.188,0.219-0.37,0.346-0.544
			c0.871-1.2,8.816-11.726,19.189-11.726c2.568,0,5.038,0.645,7.34,1.913c0.714,0.394,2.415,0.814,5.044,0.814
			c14.758,0,43.391-12.112,61.789-45.479l3.731-6.767c23.379-42.403,8.503-76.823,2.099-80.355
			c-10.935-6.029-8.83-20.231-5.863-27.672c0.08-0.2,0.172-0.395,0.276-0.583l37.989-68.897c0.104-0.188,0.219-0.37,0.346-0.543
			c0.564-0.778,5.768-7.595,14.491-7.595c2.936,0,5.866,0.795,8.711,2.363c5.165,2.848,23.696,16.844,37.694,36.724
			c17.997,25.561,21.21,50.498,9.291,72.115l-115.66,209.769C231.658,397.595,210.92,408.24,182.797,408.24L182.797,408.24z
			 M127.238,377.477c-0.578,1.702-1.62,6.472,3.416,9.248c4.455,2.457,27.847,11.139,52.135,11.141c0.001,0,0.006,0,0.008,0
			c24.463,0,41.58-8.552,50.88-25.421l115.661-209.77c10.011-18.157,7.088-38.725-8.688-61.131
			c-12.791-18.167-29.8-31.174-34.223-33.612c-1.292-0.711-2.536-1.074-3.7-1.074c-3.029,0-5.349,2.443-5.967,3.162l-37.58,68.158
			c-0.57,1.659-3.765,11.71,1.317,14.511c7.396,4.078,13.561,17.47,15.34,33.322c1.57,13.982,0.526,35.936-13.362,61.129
			l-3.731,6.767c-22.175,40.216-56.057,50.844-70.873,50.844c-4.139,0-7.521-0.707-10.054-2.104
			c-0.763-0.421-1.525-0.625-2.332-0.625c-4.176,0-8.999,5.112-10.626,7.225L127.238,377.477L127.238,377.477z"/>
	</g>
	<g>
		<path fill="#231F20" d="M189.508,435.092c-3.179,0-6.431-0.112-9.758-0.338c-26.743-1.815-48.592-10.196-49.51-10.552
			c-2.671-1.037-3.996-4.043-2.959-6.714s4.044-3.996,6.713-2.96c0.977,0.378,83.118,31.386,116.792-17.181
			c32.342-70.96,123.667-222.938,124.586-224.467c1.477-2.455,4.664-3.248,7.12-1.771c2.454,1.478,3.247,4.664,1.771,7.12
			c-0.919,1.527-92.295,153.59-124.222,223.829c-0.124,0.272-0.271,0.532-0.439,0.779
			C245.121,424.042,221.009,435.092,189.508,435.092L189.508,435.092z"/>
	</g>
</g>
</svg>
