<?xml version="1.0" encoding="utf-8"?>
<!-- Generator: Adobe Illustrator 14.0.0, SVG Export Plug-In . SVG Version: 6.00 Build 43363)  -->
<!DOCTYPE svg PUBLIC "-//W3C//DTD SVG 1.1//EN" "http://www.w3.org/Graphics/SVG/1.1/DTD/svg11.dtd">
<svg version="1.1" id="Layer_1" xmlns="http://www.w3.org/2000/svg" xmlns:xlink="http://www.w3.org/1999/xlink" x="0px" y="0px"
	 width="500px" height="500px" viewBox="0 0 500 500" enable-background="new 0 0 500 500" xml:space="preserve">
<g>
	<g>
		<path fill="#231F20" d="M362.078,409.845H110.409c-3.055,0-5.531-2.477-5.531-5.53V61.38c0-3.054,2.476-5.531,5.531-5.531h251.669
			c3.054,0,5.53,2.477,5.53,5.531v342.934C367.608,407.368,365.132,409.845,362.078,409.845L362.078,409.845z M115.94,398.781
			h240.605V66.912H115.94V398.781L115.94,398.781z"/>
	</g>
	<g>
		<path fill="#231F20" d="M323.358,159.559h-159.02c-3.055,0-5.531-2.477-5.531-5.532c0-3.054,2.477-5.531,5.531-5.531h159.02
			c3.056,0,5.531,2.477,5.531,5.531C328.89,157.083,326.414,159.559,323.358,159.559L323.358,159.559z"/>
	</g>
	<g>
		<path fill="#231F20" d="M200.291,221.785h-37.336c-3.054,0-5.531-2.477-5.531-5.531c0-3.055,2.477-5.531,5.531-5.531h37.336
			c3.054,0,5.531,2.476,5.531,5.531C205.822,219.308,203.345,221.785,200.291,221.785L200.291,221.785z"/>
	</g>
	<g>
		<path fill="#231F20" d="M326.125,221.785H244.54c-3.055,0-5.531-2.477-5.531-5.531c0-3.055,2.477-5.531,5.531-5.531h81.585
			c3.056,0,5.531,2.476,5.531,5.531C331.656,219.308,329.181,221.785,326.125,221.785L326.125,221.785z"/>
	</g>
	<g>
		<path fill="#231F20" d="M200.291,279.862h-37.336c-3.054,0-5.531-2.477-5.531-5.532c0-3.055,2.477-5.53,5.531-5.53h37.336
			c3.054,0,5.531,2.476,5.531,5.53C205.822,277.386,203.345,279.862,200.291,279.862L200.291,279.862z"/>
	</g>
	<g>
		<path fill="#231F20" d="M326.125,279.862H244.54c-3.055,0-5.531-2.477-5.531-5.532c0-3.055,2.477-5.53,5.531-5.53h81.585
			c3.056,0,5.531,2.476,5.531,5.53C331.656,277.386,329.181,279.862,326.125,279.862L326.125,279.862z"/>
	</g>
	<g>
		<path fill="#231F20" d="M391.117,444.414H115.94c-3.055,0-5.531-2.477-5.531-5.53c0-3.056,2.477-5.532,5.531-5.532h269.645V77.974
			c0-3.054,2.478-5.531,5.532-5.531c3.053,0,5.53,2.477,5.53,5.531v360.91C396.647,441.938,394.17,444.414,391.117,444.414
			L391.117,444.414z"/>
	</g>
</g>
</svg>
