<?xml version="1.0" encoding="utf-8"?>
<!-- Generator: Adobe Illustrator 14.0.0, SVG Export Plug-In . SVG Version: 6.00 Build 43363)  -->
<!DOCTYPE svg PUBLIC "-//W3C//DTD SVG 1.1//EN" "http://www.w3.org/Graphics/SVG/1.1/DTD/svg11.dtd">
<svg version="1.1" id="Layer_1" xmlns="http://www.w3.org/2000/svg" xmlns:xlink="http://www.w3.org/1999/xlink" x="0px" y="0px"
	 width="500px" height="500px" viewBox="0 0 500 500" enable-background="new 0 0 500 500" xml:space="preserve">
<g>
	<g>
		<path fill="#231F20" d="M367.221,443.568H351.51c-2.349,0-4.646-0.139-6.88-0.408c-0.701,0.265-1.461,0.408-2.255,0.408H96.758
			c-23.424,0-41.771-13.861-41.771-31.557V66.605c0-3.54,2.87-6.409,6.409-6.409h254.752c3.54,0,6.409,2.87,6.409,6.409V297.33
			h80.026c3.54,0,6.409,2.87,6.409,6.409v108.272C408.992,429.707,390.645,443.568,367.221,443.568L367.221,443.568z
			 M322.557,310.148v101.863c0,10.158,13.26,18.739,28.953,18.739h15.711c15.694,0,28.954-8.581,28.954-18.739V310.148H322.557
			L322.557,310.148z M67.804,73.014v338.998c0,10.158,13.259,18.739,28.954,18.739h220.925c-5.014-5.208-7.944-11.667-7.944-18.739
			V73.014H67.804L67.804,73.014z"/>
	</g>
	<g>
		<path fill="#231F20" d="M284.422,122.129H88.593c-3.539,0-6.409-2.87-6.409-6.409c0-3.539,2.87-6.409,6.409-6.409h195.829
			c3.539,0,6.409,2.87,6.409,6.409C290.831,119.259,287.961,122.129,284.422,122.129L284.422,122.129z"/>
	</g>
	<g>
		<path fill="#231F20" d="M283.439,244.456H93.503c-3.539,0-6.409-2.87-6.409-6.409v-85c0-3.54,2.87-6.409,6.409-6.409h189.937
			c3.539,0,6.409,2.87,6.409,6.409v85C289.849,241.586,286.979,244.456,283.439,244.456L283.439,244.456z M99.912,231.638H277.03
			v-72.181H99.912V231.638L99.912,231.638z"/>
	</g>
	<g>
		<path fill="#231F20" d="M211.403,279.432h-60.272c-3.539,0-6.409-2.87-6.409-6.409s2.87-6.409,6.409-6.409h60.272
			c3.54,0,6.409,2.87,6.409,6.409S214.943,279.432,211.403,279.432L211.403,279.432z"/>
	</g>
	<g>
		<path fill="#231F20" d="M286.709,322.692h-55.465c-3.539,0-6.409-2.87-6.409-6.409s2.87-6.409,6.409-6.409h55.465
			c3.54,0,6.409,2.87,6.409,6.409S290.249,322.692,286.709,322.692L286.709,322.692z"/>
	</g>
	<g>
		<path fill="#231F20" d="M286.709,364.351h-55.465c-3.539,0-6.409-2.869-6.409-6.408c0-3.54,2.87-6.409,6.409-6.409h55.465
			c3.54,0,6.409,2.869,6.409,6.409C293.118,361.481,290.249,364.351,286.709,364.351L286.709,364.351z"/>
	</g>
	<g>
		<path fill="#231F20" d="M351.545,271.694c-3.54,0-6.409-2.87-6.409-6.409V63.331c0-3.54,2.869-6.409,6.409-6.409
			c3.539,0,6.408,2.87,6.408,6.409v201.955C357.953,268.824,355.084,271.694,351.545,271.694L351.545,271.694z"/>
	</g>
	<g>
		<path fill="#231F20" d="M439.296,422.145c-3.539,0-6.409-2.869-6.409-6.408V301.959c0-3.54,2.87-6.409,6.409-6.409
			c3.54,0,6.409,2.869,6.409,6.409v113.777C445.705,419.275,442.836,422.145,439.296,422.145L439.296,422.145z"/>
	</g>
	<g>
		<path fill="#231F20" d="M196.027,401.477h-99.34c-3.539,0-6.409-2.869-6.409-6.409v-86.521c0-3.539,2.87-6.409,6.409-6.409h99.34
			c3.54,0,6.409,2.87,6.409,6.409v86.521C202.436,398.607,199.566,401.477,196.027,401.477L196.027,401.477z M103.096,388.659
			h86.522v-73.704h-86.522V388.659L103.096,388.659z"/>
	</g>
</g>
</svg>
