<?xml version="1.0" encoding="utf-8"?>
<!-- Generator: Adobe Illustrator 14.0.0, SVG Export Plug-In . SVG Version: 6.00 Build 43363)  -->
<!DOCTYPE svg PUBLIC "-//W3C//DTD SVG 1.1//EN" "http://www.w3.org/Graphics/SVG/1.1/DTD/svg11.dtd">
<svg version="1.1" id="Layer_1" xmlns="http://www.w3.org/2000/svg" xmlns:xlink="http://www.w3.org/1999/xlink" x="0px" y="0px"
	 width="500px" height="500px" viewBox="0 0 500 500" enable-background="new 0 0 500 500" xml:space="preserve">
<g>
	<g>
		<path fill="#231F20" d="M127.827,231.645c-10.455,0-20.526-2.392-29.931-7.11c-32.957-16.531-46.321-56.793-29.79-89.75
			c11.417-22.761,34.338-36.9,59.818-36.9c10.455,0,20.526,2.392,29.934,7.111c15.965,8.007,27.854,21.752,33.481,38.705
			s4.314,35.081-3.694,51.047C176.229,217.506,153.309,231.645,127.827,231.645L127.827,231.645z M127.924,109.905
			c-20.904,0-39.707,11.598-49.073,30.269c-13.558,27.031-2.598,60.056,24.435,73.615c7.718,3.872,15.975,5.833,24.541,5.833
			c20.904,0,39.709-11.598,49.073-30.266c6.568-13.096,7.644-27.964,3.029-41.869c-4.614-13.904-14.367-25.179-27.461-31.748
			C144.748,111.869,136.49,109.905,127.924,109.905L127.924,109.905z"/>
	</g>
	<g>
		<path fill="#231F20" d="M369.593,352.915c-10.456,0-20.526-2.392-29.933-7.11c-32.957-16.531-46.321-56.793-29.79-89.75
			c11.418-22.762,34.339-36.902,59.817-36.902c10.455,0,20.526,2.394,29.935,7.113c15.965,8.006,27.855,21.752,33.482,38.705
			c5.626,16.951,4.314,35.079-3.694,51.046C417.993,338.775,395.072,352.915,369.593,352.915L369.593,352.915z M369.688,231.175
			c-20.902,0-39.705,11.599-49.072,30.27c-13.559,27.031-2.598,60.056,24.435,73.616c7.718,3.871,15.976,5.833,24.543,5.833
			c20.902,0,39.707-11.598,49.073-30.269c6.568-13.095,7.644-27.963,3.028-41.868c-4.615-13.902-14.368-25.177-27.463-31.746
			C386.512,233.138,378.254,231.175,369.688,231.175L369.688,231.175z"/>
	</g>
	<g>
		<path fill="#231F20" d="M197.128,404.721c-0.927,0-1.85-0.214-2.694-0.639l-58.427-29.307c-2.969-1.488-4.166-5.1-2.678-8.067
			l152.599-304.22c0.715-1.427,1.967-2.508,3.479-3.01c1.515-0.505,3.164-0.383,4.587,0.332l58.428,29.307
			c2.969,1.488,4.166,5.1,2.678,8.067L202.5,401.404c-0.714,1.426-1.966,2.508-3.479,3.01
			C198.405,404.619,197.767,404.721,197.128,404.721L197.128,404.721z M146.77,366.725l47.681,23.917L341.659,97.167L293.979,73.25
			L146.77,366.725L146.77,366.725z"/>
	</g>
	<g>
		<path fill="#231F20" d="M384.496,386.423c-10.068,0-20.277-2.278-29.872-7.092c-2.967-1.487-4.166-5.099-2.678-8.066
			c1.486-2.969,5.1-4.171,8.066-2.678c27.033,13.557,60.059,2.597,73.617-24.435c1.486-2.967,5.101-4.17,8.066-2.678
			c2.968,1.488,4.166,5.1,2.679,8.066C432.658,372.904,409.01,386.423,384.496,386.423L384.496,386.423z"/>
	</g>
	<g>
		<path fill="#231F20" d="M142.833,265.224c-10.229,0-20.453-2.388-29.972-7.163c-2.967-1.488-4.167-5.1-2.678-8.067
			c1.486-2.969,5.101-4.169,8.067-2.678c15.609,7.826,33.529,7.829,49.168,0.009c2.972-1.485,6.579-0.285,8.065,2.685
			c1.485,2.971,0.283,6.58-2.686,8.065C163.271,262.84,153.049,265.224,142.833,265.224L142.833,265.224z"/>
	</g>
	<g>
		<path fill="#231F20" d="M212.151,441.788c-0.907,0-1.826-0.205-2.69-0.64l-58.427-29.306c-2.967-1.488-4.166-5.1-2.678-8.067
			c1.488-2.969,5.105-4.168,8.067-2.678l53.054,26.609l60.629-120.868c1.488-2.969,5.104-4.168,8.067-2.679
			c2.969,1.488,4.166,5.1,2.678,8.067L217.528,438.47C216.474,440.573,214.352,441.788,212.151,441.788L212.151,441.788z"/>
	</g>
	<g>
		<path fill="#231F20" d="M330.027,206.794c-0.907,0-1.825-0.206-2.689-0.64c-2.968-1.488-4.167-5.1-2.679-8.067l34.723-69.226
			c1.488-2.969,5.105-4.166,8.066-2.678c2.968,1.488,4.167,5.1,2.679,8.067l-34.723,69.226
			C334.351,205.579,332.229,206.794,330.027,206.794L330.027,206.794z"/>
	</g>
</g>
</svg>
