<?xml version="1.0" encoding="utf-8"?>
<!-- Generator: Adobe Illustrator 14.0.0, SVG Export Plug-In . SVG Version: 6.00 Build 43363)  -->
<!DOCTYPE svg PUBLIC "-//W3C//DTD SVG 1.1//EN" "http://www.w3.org/Graphics/SVG/1.1/DTD/svg11.dtd">
<svg version="1.1" id="Layer_1" xmlns="http://www.w3.org/2000/svg" xmlns:xlink="http://www.w3.org/1999/xlink" x="0px" y="0px"
	 width="500px" height="500px" viewBox="0 0 500 500" enable-background="new 0 0 500 500" xml:space="preserve">
<g>
	<g>
		<path fill="#231F20" d="M356.989,442.231c-3.652,0-6.614-2.962-6.614-6.614V274.834c0-3.653,2.962-6.615,6.614-6.615
			c3.653,0,6.615,2.962,6.615,6.615v160.783C363.604,439.27,360.643,442.231,356.989,442.231L356.989,442.231z"/>
	</g>
	<g>
		<path fill="#231F20" d="M317.799,443.03H182.49c-3.653,0-6.614-2.961-6.614-6.614V239.522l-94.657-1.815
			c-2.651-0.05-5.016-1.681-6.007-4.141c-0.991-2.459-0.418-5.274,1.458-7.149L244.445,58.644c2.584-2.584,6.773-2.584,9.353,0
			l169.82,169.818c1.893,1.893,2.458,4.738,1.433,7.21c-1.024,2.471-3.436,4.081-6.109,4.081c-0.002,0-0.005,0-0.007,0
			l-94.521-0.099v196.762C324.413,440.069,321.452,443.03,317.799,443.03L317.799,443.03z M189.104,429.802h122.08V233.033
			c0-1.755,0.698-3.439,1.939-4.68c1.24-1.238,2.923-1.935,4.675-1.935c0.002,0,0.005,0,0.007,0l85.15,0.089L249.122,72.675
			L97.015,224.778l85.603,1.643c3.603,0.069,6.487,3.008,6.487,6.612V429.802L189.104,429.802z"/>
	</g>
</g>
</svg>
